<svg xmlns="http://www.w3.org/2000/svg" version="1.0" fill="#111729" viewBox="0 0 90 90"><path d="M3.4 3.4C-.2 7-.9 10.4 1.1 14.3c.6 1.2 7.5 8.6 15.2 16.4L30.4 45 15.8 59.7C6.9 68.7.9 75.6.5 77.2c-1.9 7.7 4.6 14.2 12.3 12.3 1.6-.4 8.5-6.4 17.5-15.3L45 59.6l14.8 14.6c8.9 8.9 15.8 14.9 17.5 15.3 7.6 1.9 14.1-4.6 12.2-12.3-.4-1.6-6.4-8.5-15.3-17.5L59.6 45l13.5-13.8C88.4 15.8 90 13.8 90 9.7c0-4-5.7-9.7-9.7-9.7-4.1 0-6.1 1.6-21.5 16.9L45 30.5 31.3 16.9C23.7 9.4 16.4 2.5 15 1.6 11-1 7.2-.4 3.4 3.4z"/></svg>