<svg xmlns="http://www.w3.org/2000/svg" version="1.0" fill="#111729" viewBox="0 0 512 512"><path d="M23.8 77.9c-6.3 2-14.1 7.3-17.4 11.8C.8 97.2 0 100.2 0 113c0 10.8.3 12.6 2.4 16.8 3.4 6.8 10 13 17.6 16.6l6.5 3.1 227.5.3c252.4.2 232.9.8 243.5-6.3 5.5-3.8 9.1-7.9 12.4-14.2 1.8-3.6 2.1-5.9 2.1-16.3s-.3-12.7-2.1-16.3c-3.4-6.6-6.6-10.2-12.2-14-10.6-7.2 8.8-6.7-242.1-6.6-215.9 0-226.4.1-231.8 1.8zm-.3 143.2c-7.9 2.5-14.6 7.6-19.2 14.6l-3.8 5.6v29.4l3.8 5.6c4.7 7.1 11.3 12.1 19.6 14.7 6.2 2 8.9 2 232.1 2s225.9 0 232.1-2c8.3-2.6 14.9-7.6 19.6-14.7l3.8-5.6v-29.4l-3.8-5.6c-4.7-7.1-11.3-12.1-19.6-14.7-6.2-2-8.8-2-232.5-1.9-221.2 0-226.2.1-232.1 2zm2 142.3c-10.3 3.3-18.7 10.1-23.1 18.8-2.1 4.2-2.4 6-2.4 16.8 0 10.4.3 12.7 2.1 16.3 4.9 9.6 11.4 15.2 21.6 18.6l6.2 2.1h226c219.3 0 226.1-.1 232-1.9 9.6-3 16.8-9.1 21.6-18.3 2.3-4.3 2.5-5.9 2.5-16.8 0-10.4-.3-12.7-2.1-16.3-3.3-6.3-6.9-10.4-12.4-14.1-10.6-7.1 9-6.6-241.9-6.5-179.7 0-226.9.3-230.1 1.3z"/></svg>